<svg id="Layer_1" enable-background="new 0 0 512 512" height="512" viewBox="0 0 512 512" width="512" xmlns="http://www.w3.org/2000/svg"><g><path d="m400.6 287.066h-32.133c-8.284 0-15-6.716-15-15v-64.266c0-8.284 6.716-15 15-15h32.133c25.989 0 47.133 21.144 47.133 47.133s-21.144 47.133-47.133 47.133z" fill="#ffa0aa"/><path d="m143.533 287.066h-32.133c-25.989 0-47.133-21.144-47.133-47.133s21.144-47.133 47.133-47.133h32.133c8.284 0 15 6.716 15 15v64.267c0 8.284-6.716 14.999-15 14.999z" fill="#ffbeb9"/><path d="m368.467 144.6h-224.934c-8.284 0-15 6.716-15 15v160.667c0 5.199 2.692 10.027 7.114 12.76 4.426 2.736 9.947 2.979 14.594.657l64.266-32.134c25.982-12.99 57.004-12.99 82.984.001l64.267 32.133c4.65 2.325 10.171 2.076 14.594-.657s7.114-7.561 7.114-12.76v-160.667c.001-8.284-6.715-15-14.999-15z" fill="#ffdcc8"/><path d="m297.492 301.55 64.267 32.133c4.65 2.325 10.171 2.076 14.594-.657s7.114-7.561 7.114-12.76v-160.666c0-8.284-6.716-15-15-15h-112.467v147.206c14.251.001 28.502 3.248 41.492 9.744z" fill="#ffbeb9"/><path d="m368.467 174.6h-224.934c-8.284 0-15-6.716-15-15v-64.267c0-52.566 42.767-95.333 95.334-95.333h64.267c52.567 0 95.333 42.767 95.333 95.333v64.267c0 8.284-6.716 15-15 15z" fill="#ffe100"/><path d="m383.467 159.6v-64.267c0-52.566-42.767-95.333-95.334-95.333h-32.133v174.6h112.467c8.284 0 15-6.716 15-15z" fill="#ffb400"/><path d="m477.347 488.678c-12.112-18.169-29.082-32.392-49.068-41.129l-102.001-44.626c-4.637-2.028-9.986-1.582-14.222 1.189s-6.79 7.492-6.79 12.554v16.067c0 27.166-22.101 49.267-49.267 49.267s-49.267-22.101-49.267-49.267v-16.067c0-5.062-2.553-9.783-6.79-12.554-4.236-2.771-9.585-3.217-14.222-1.189l-101.999 44.625c-19.986 8.738-36.956 22.96-49.068 41.129-4.596 6.893-2.733 16.206 4.16 20.802 2.557 1.705 5.448 2.521 8.307 2.521h65.347c0-8.284 6.716-15 15-15s15 6.716 15 15h227.066c0-8.284 6.716-15 15-15s15 6.716 15 15h65.347c2.859 0 5.75-.816 8.307-2.521 6.893-4.595 8.756-13.908 4.16-20.801z" fill="#00a5ff"/><path d="m477.347 488.678c-12.112-18.169-29.082-32.392-49.068-41.129l-102.001-44.626c-4.637-2.028-9.986-1.582-14.222 1.189s-6.79 7.492-6.79 12.554v16.067c0 27.166-22.101 49.267-49.267 49.267v30h113.534c0-8.284 6.716-15 15-15s15 6.716 15 15h65.347c2.859 0 5.75-.816 8.307-2.521 6.893-4.595 8.756-13.908 4.16-20.801z" fill="#0064ff"/><path d="m112.467 512v-79.268c0-8.284 6.716-15 15-15s15 6.716 15 15v79.268z" fill="#b46e5a"/><path d="m320.267 377.567h-128.534c-8.284 0-15 6.716-15 15v40.167c0 43.777 35.489 79.266 79.267 79.266s79.267-35.489 79.267-79.267v-40.167c0-8.283-6.716-14.999-15-14.999z" fill="#ffbeb9"/><path d="m335.267 432.732v-40.167c0-8.284-6.716-15-15-15h-64.267v134.435c43.777 0 79.267-35.49 79.267-79.268z" fill="#ffa0aa"/><circle clip-rule="evenodd" cx="207.8" cy="223.867" fill="#283741" fill-rule="evenodd" r="15"/><circle clip-rule="evenodd" cx="304.2" cy="223.867" fill="#0a141e" fill-rule="evenodd" r="15"/><path d="m256 422.648c-24.377 0-48.753-5.555-70.974-16.665-22.36-11.182-56.492-35.595-56.492-85.717 0-5.682 3.21-10.875 8.292-13.417l64.267-32.133c34.382-17.194 75.436-17.194 109.818.001l64.265 32.132c5.082 2.541 8.292 7.735 8.292 13.417 0 50.18-34.208 74.572-56.491 85.716-22.223 11.111-46.601 16.666-70.977 16.666z" fill="#f0f5fa"/><path d="m383.467 320.267c0-5.682-3.21-10.875-8.292-13.417l-64.265-32.132c-17.191-8.598-36.05-12.896-54.91-12.896v160.827c24.377 0 48.755-5.555 70.976-16.666 22.283-11.145 56.491-35.536 56.491-85.716z" fill="#dfe3e9"/><path d="m369.533 512v-79.268c0-8.284 6.716-15 15-15s15 6.716 15 15v79.268z" fill="#82503c"/><path d="m497 174.6h-482c-8.284 0-15-6.716-15-15s6.716-15 15-15h482c8.284 0 15 6.716 15 15s-6.716 15-15 15z" fill="#ffb400"/><path d="m512 159.6c0-8.284-6.716-15-15-15h-241v30h241c8.284 0 15-6.716 15-15z" fill="#ff8200"/></g></svg>