<?xml version="1.0"?>
<svg xmlns="http://www.w3.org/2000/svg" id="Capa_1" enable-background="new 0 0 512 512" height="512px" viewBox="0 0 512 512" width="512px" class=""><g><path d="m436.812 75.188c-48.485-48.486-112.699-75.188-180.812-75.188s-132.327 26.702-180.812 75.188c-48.486 48.485-75.188 112.699-75.188 180.812s26.702 132.327 75.188 180.812c48.485 48.486 112.699 75.188 180.812 75.188s132.327-26.702 180.812-75.188c48.486-48.485 75.188-112.699 75.188-180.812s-26.702-132.327-75.188-180.812zm-394.79 253.581 111.556-111.556 21.209 21.209-120.142 120.142c-4.89-9.56-9.117-19.512-12.623-29.795zm132.769-132.769 10.604-10.604c2.835-2.835 6.601-4.396 10.605-4.396s7.77 1.561 10.604 4.396l83.789 83.789c5.857 5.858 15.355 5.858 21.213 0l134.805-134.805c5.607 8.747 10.618 17.91 14.997 27.421l-149.804 149.803c-2.834 2.835-6.6 4.396-10.604 4.396s-7.77-1.561-10.604-4.396zm81.209-166c69.005 0 130.875 31.098 172.363 80.002l-127.363 127.363-73.183-73.182c-8.5-8.501-19.8-13.183-31.817-13.183s-23.317 4.682-31.817 13.183l-130.807 130.806c-2.213-12.67-3.376-25.696-3.376-38.989 0-124.617 101.383-226 226-226zm0 452c-76.673 0-144.539-38.389-185.419-96.946l125.419-125.419 73.183 73.183c8.5 8.501 19.8 13.183 31.817 13.183s23.317-4.682 31.817-13.183l140.14-140.14c5.877 20.1 9.043 41.347 9.043 63.322 0 124.617-101.383 226-226 226z" data-original="#000000" class="active-path" data-old_color="#000000" fill="#FFFFFF"/></g> </svg>
