<?xml version="1.0"?>
<svg xmlns="http://www.w3.org/2000/svg" id="Capa_1" enable-background="new 0 0 512.137 512.137" height="512px" viewBox="0 0 512.137 512.137" width="512px"><g><g><circle cx="288.957" cy="423.887" r="10" data-original="#000000" class="active-path" data-old_color="#000000" fill="#FFFFFF"/><circle cx="248.957" cy="253.887" r="10" data-original="#000000" class="active-path" data-old_color="#000000" fill="#FFFFFF"/><path d="m445.568 12.946c-3.909-3.908-10.243-3.903-14.147.005-7.828 7.839-69.201 69.298-76.939 77.047-73.034-50.602-169.815-53.594-246.042-7.029-4.713 2.88-6.199 9.034-3.32 13.747 2.879 4.714 9.035 6.199 13.747 3.32 67.935-41.499 155.389-39.385 221.224 4.373l-15.031 15.052c-3.902 3.909-3.896 10.24.012 14.143 3.888 3.882 10.22 3.916 14.142-.012l17.128-17.152c5.351 4.384 10.506 9.041 15.384 13.918 44.914 44.915 66.333 107.412 58.951 169.851-26.75-15.365-61.612-11.631-84.401 11.167-27.291 27.293-27.291 71.7 0 98.993 6.373 6.373 13.763 11.359 21.849 14.829-80.574 76.783-208.591 75.614-287.726-3.512-12.041-12.042-22.447-25.367-31.098-39.773 25.066 2.039 49.642-7.056 67.169-24.575 33.143-33.143 33.143-87.07-.001-120.214-23.461-23.451-57.719-30.667-87.803-20.289 6.185-20.746 15.579-40.252 28.061-58.198 3.153-4.534 2.035-10.766-2.5-13.92-4.533-3.152-10.766-2.034-13.919 2.5-18.054 25.957-30.229 54.882-36.199 85.971-.035.154-.064.31-.092.466-13.937 73.221 8.79 148.726 62.239 202.175 91.295 91.284 240.594 88.278 328.081-8.93 79.502-88.518 77.248-224.966-8.469-310.684-4.879-4.879-10.01-9.558-15.329-13.992l25.563-25.598 56.534 56.534c3.904 3.903 10.238 3.904 14.143 0l42.43-42.431c3.905-3.905 3.905-10.237 0-14.143zm-422.64 228.533c25.376-15.27 58.165-11.435 79.397 9.79 25.401 25.401 25.407 66.52.002 91.927-16.928 16.919-41.927 23.097-64.686 16.289-16.244-36.707-21.428-78.281-14.713-118.006zm337.491 84.037c18.126-18.132 46.944-19.383 66.545-3.709-7.322 32.201-22.36 62.227-43.796 87.454-8.59-2.221-16.378-6.663-22.75-13.035-19.494-19.494-19.494-51.214.001-70.71zm99.288-213.571-49.473-49.473 28.268-28.308 49.493 49.492z" data-original="#000000" class="active-path" data-old_color="#000000" fill="#FFFFFF"/><path d="m158.885 131.054c-3.905-3.903-10.237-3.9-14.142.004-21.437 21.449-21.436 56.342.002 77.78 21.495 21.493 56.276 21.51 77.777.005.001-.001.003-.002.004-.003l.002-.002.002-.002c.001-.001.002-.002.003-.004 21.493-21.49 21.498-56.273-.005-77.777-3.905-3.904-10.237-3.904-14.143 0-3.905 3.905-3.905 10.237 0 14.143 13.678 13.677 13.692 35.814.002 49.495-.001.001-.001.001-.002.002s-.001.001-.002.002c-13.675 13.683-35.81 13.685-49.496-.002-13.643-13.643-13.642-35.848.002-49.499 3.905-3.905 3.903-10.238-.004-14.142z" data-original="#000000" class="active-path" data-old_color="#000000" fill="#FFFFFF"/><path d="m197.788 332.583c-.001.001-.002.001-.003.002 0 0-.001.001-.001.001s-.001.001-.002.001c-.001.001-.002.002-.003.003-15.59 15.598-15.589 40.972.006 56.567 3.906 3.905 10.237 3.905 14.142 0s3.906-10.237 0-14.143c-7.799-7.799-7.799-20.489 0-28.288 0 0 .001-.001.001-.001s.001-.001.002-.001c7.812-7.818 20.461-7.817 28.271 0 0 0 .001.001.002.001s.001.001.001.001c7.799 7.799 7.799 20.489 0 28.288-3.905 3.905-3.905 10.237 0 14.143 3.906 3.905 10.237 3.904 14.142 0 15.594-15.596 15.596-40.969.006-56.567-.001-.001-.002-.002-.003-.003 0 0-.001-.001-.002-.001s-.001-.001-.001-.001c-.001-.001-.002-.001-.003-.002-15.625-15.633-40.927-15.634-56.555 0z" data-original="#000000" class="active-path" data-old_color="#000000" fill="#FFFFFF"/><path d="m360.418 184.097c-15.636-15.637-40.933-15.639-56.572-.001-15.594 15.595-15.594 40.968 0 56.563 15.598 15.596 40.974 15.597 56.572 0 15.625-15.626 15.63-40.933 0-56.562zm-14.142 42.419c-7.799 7.799-20.489 7.799-28.288 0-7.796-7.796-7.796-20.481 0-28.278 7.818-7.818 20.466-7.822 28.288.001 7.81 7.809 7.811 20.467 0 28.277z" data-original="#000000" class="active-path" data-old_color="#000000" fill="#FFFFFF"/><circle cx="78.067" cy="119.017" r="10" data-original="#000000" class="active-path" data-old_color="#000000" fill="#FFFFFF"/></g></g> </svg>
