<svg id="Layer_1" enable-background="new 0 0 512 512" height="512" viewBox="0 0 512 512" width="512" xmlns="http://www.w3.org/2000/svg"><path d="m62.841 454h-26.903c-2.21 0-4.002-1.792-4.002-4.002v-161.233h30.905z" fill="#ebad88"/><path d="m11.847 247.145h61.811v100.481h-61.811z" fill="#ff80ab"/><path d="m42.753 247.145h30.905v100.481h-30.905z" fill="#f06a98"/><path d="m369.732 252.528-19.573-19.594c-2.926-2.931-7.675-2.933-10.606-.006s-2.933 7.676-.005 10.606l6.231 6.238h-179.557l6.231-6.237c2.927-2.931 2.925-7.679-.005-10.607-2.93-2.927-7.679-2.925-10.607.005l-19.574 19.594c-2.925 2.929-2.925 7.673 0 10.602l19.574 19.594c1.465 1.466 3.385 2.199 5.306 2.199 1.918 0 3.836-.731 5.301-2.194 2.93-2.928 2.933-7.676.005-10.607l-7.341-7.349h181.777l-7.341 7.349c-2.928 2.93-2.926 7.679.005 10.606 1.465 1.463 3.383 2.194 5.301 2.194 1.921 0 3.842-.733 5.306-2.2l19.573-19.594c2.925-2.927 2.925-7.671-.001-10.599z" fill="#f78e36"/><path d="m82.533 454h-46.595c-2.21 0-4.002-1.792-4.002-4.002v-28.998h33.985c11.385 0 20.614 9.229 20.614 20.614v8.384c0 2.21-1.792 4.002-4.002 4.002z" fill="#be652b"/><path d="m470.793 125.031h30.905v51.563h-30.905z" fill="#e8916f" transform="matrix(-1 0 0 -1 972.491 301.625)"/><path d="m509.94 275.118v-89.243c0-17.086-13.837-30.937-30.906-30.937-17.069 0-30.905 13.851-30.905 30.937v89.243z" fill="#f75632"/><path d="m479.034 185.875-.031 89.243h30.906l.03-89.243c0-17.086-13.837-30.937-30.906-30.937-5.631 0-10.906 1.515-15.453 4.149 9.236 5.35 15.454 15.339 15.454 26.788z" fill="#e33629"/><path d="m509.94 275.118v3.217c0 9.613-3.373 18.92-9.529 26.297-6.157 7.377-9.529 16.684-9.529 26.297v119.067c0 2.211-1.791 4.004-4 4.004h-26.905v-101.477c0-14.965-1.592-29.887-4.749-44.514l-7.098-32.891z" fill="#4362a0"/><path d="m479.034 141.531c17.069 0 30.905-13.837 30.905-30.905v-16.564c0-17.069-13.837-30.905-30.905-30.905-17.069 0-30.905 13.837-30.905 30.905v16.564c0 17.068 13.837 30.905 30.905 30.905z" fill="#ebad88"/><path d="m440.284 454h46.595c2.21 0 4.002-1.792 4.002-4.002v-28.998h-33.985c-11.385 0-20.614 9.229-20.614 20.614v8.384c0 2.21 1.792 4.002 4.002 4.002z" fill="#be652b"/><path d="m376.195 127.26c7.754-3.619 16.979-.281 20.606 7.457l22.281 47.54 48.89-26.445c18.431-9.059 32.471 16.69 14.769 27.2 0 0-63.346 34.264-63.346 34.264-7.545 4.282-17.913.869-21.423-7.046 0 0-29.249-62.404-29.249-62.404-3.627-7.739-.282-16.946 7.472-20.566z" fill="#ebad88"/><path d="m482.741 183.012c17.702-10.51 3.662-36.259-14.769-27.2l-32.858 17.773c4.11 7.968 9.559 18.832 13.95 27.643 16.476-8.912 33.677-18.216 33.677-18.216z" fill="#4362a0"/><path d="m512 76.827v35.882c0 6.236-5.05 11.291-11.279 11.291-9.701 0-17.566-7.873-17.566-17.584v-.767c0-5.812-4.707-10.524-10.513-10.524h-18.332c-10.241 0-18.543-8.311-18.543-18.562 0-10.252 8.302-18.562 18.543-18.562h38.883c10.387-.001 18.807 8.428 18.807 18.826z" fill="#d67b42"/><path d="m493.193 58h-30.905c10.387 0 18.807 8.429 18.807 18.827v22.583c1.289 1.747 2.06 3.9 2.06 6.239v.767c0 9.711 7.864 17.584 17.566 17.584 6.229 0 11.279-5.055 11.279-11.291v-35.882c0-10.398-8.42-18.827-18.807-18.827z" fill="#be652b"/><path d="m24.724 125.031h30.905v51.563h-30.905z" fill="#e8916f"/><path d="m73.658 257.828h-61.811v-71.985c0-17.069 13.837-30.905 30.905-30.905 17.069 0 30.905 13.837 30.905 30.905v71.985z" fill="#ffd54f"/><path d="m42.753 154.938c-5.631 0-10.906 1.515-15.453 4.149 9.235 5.35 15.453 15.339 15.453 26.788v71.953h30.905v-71.953c0-17.086-13.837-30.937-30.905-30.937z" fill="#ffc328"/><path d="m42.753 141.531c-17.069 0-30.905-13.837-30.905-30.905v-16.564c0-17.069 13.837-30.905 30.905-30.905 17.069 0 30.905 13.837 30.905 30.905v16.564c0 17.068-13.837 30.905-30.905 30.905z" fill="#ebad88"/><path d="m130.984 101.474c-8.453-1.323-16.39 4.446-17.73 12.888l-8.228 51.862-54.301-11.826c-20.219-3.583-26.569 25.054-6.649 30.235 0 0 70.356 15.322 70.356 15.322 8.436 2.018 17.45-4.141 18.629-12.72 0 0 10.802-68.078 10.802-68.078 1.339-8.442-4.427-16.359-12.879-17.683z" fill="#ebad88"/><path d="m47.942 98.483h31.241c1.657 0 3-1.345 3-3.003v-7.257c0-20.308-13.789-25.067-27.102-25.067h-11.04c-20.43 0-37.709 15.309-40.425 35.816l-3.472 26.228c-1.29 9.742 6.282 18.394 16.099 18.394h27.149v-40.503c0-2.545 2.037-4.608 4.55-4.608z" fill="#d67b42"/></svg>