<svg id="temperature-low" enable-background="new 0 0 300 300" height="512" viewBox="0 0 300 300" width="512" xmlns="http://www.w3.org/2000/svg"><g><circle cx="155.161" cy="120" fill="#edebdc" r="86"/><g><circle cx="235.161" cy="64" fill="#fff" r="34"/><path d="m235.161 102c-20.953 0-38-17.047-38-38s17.047-38 38-38 38 17.047 38 38-17.047 38-38 38zm0-68c-16.543 0-30 13.457-30 30s13.457 30 30 30 30-13.457 30-30-13.457-30-30-30z" fill="#4c241d"/></g><path d="m233.161 78c-1.086 0-2.133-.443-2.891-1.236l-6.883-7.201c-1.527-1.598-1.469-4.129.125-5.656 1.605-1.525 4.133-1.467 5.656.129l3.344 3.496 8.922-14.146c1.18-1.865 3.656-2.424 5.516-1.248 1.871 1.178 2.43 3.648 1.25 5.518l-11.656 18.48c-.656 1.041-1.758 1.723-2.984 1.846-.133.012-.266.018-.399.018z" fill="#a9ba5a"/><path d="m197.747 244.684c-6.801 0-12.336-5.535-12.336-12.34 0-6.803 5.535-12.338 12.336-12.338 6.805 0 12.34 5.535 12.34 12.338 0 6.804-5.535 12.34-12.34 12.34zm0-16.678c-2.391 0-4.336 1.945-4.336 4.338s1.945 4.34 4.336 4.34c2.395 0 4.34-1.947 4.34-4.34s-1.945-4.338-4.34-4.338z" fill="#4c241d"/><g><path d="m181.161 74h-98.755c-31.99 0-56.259 28.827-50.808 60.349l12.392 71.651h29.171v-22.346l12-12v-12.222c2.016 2.062 3.554 3.509 6.819 4.02 9.399 1.47 17.181-5.775 17.181-15.289v-38.163h38.829c17.673 0 33.171-18.327 33.171-36z" fill="#bf7e68"/><path d="m73.161 210h-29.172c-1.945 0-3.609-1.4-3.941-3.318l-12.391-71.65c-2.801-16.189 1.66-32.684 12.242-45.252 10.583-12.571 26.075-19.78 42.508-19.78h98.754c2.211 0 4 1.791 4 4 0 20.561-18.066 40-37.172 40h-34.828v34.162c0 5.896-2.465 11.385-6.758 15.061-4.164 3.561-9.508 5.041-15.039 4.18-.801-.125-1.531-.293-2.203-.5v4.752c0 1.061-.422 2.078-1.172 2.828l-10.828 10.828v20.689c0 2.209-1.789 4-4 4zm-25.804-8h21.805v-18.346c0-1.061.422-2.078 1.172-2.828l10.828-10.828v-10.566c0-1.627.984-3.09 2.492-3.705 1.5-.617 3.23-.258 4.367.91 1.875 1.916 2.641 2.561 4.578 2.863 3.188.502 6.246-.338 8.605-2.355 2.516-2.154 3.957-5.428 3.957-8.982v-38.163c0-2.209 1.789-4 4-4h38.828c13.504 0 26.773-13.332 28.883-28h-94.465c-14.066 0-27.328 6.172-36.387 16.932s-12.879 24.877-10.48 38.736z" fill="#4c241d"/></g><g><path d="m157.161 151.654v-41.654h-50.746c-11.738 0-21.254 9.516-21.254 21.254v18.746h-11.141c-12.415 0-21.595 12.796-16.368 24.057 2.617 5.639 8.055 9.597 14.339 9.597h2.884l-17.713 24v62.346h64v-28h17.641c10.14 0 18.359-8.22 18.359-18.359v-29.641h11.179c3.597 0 6.003-3.703 4.542-6.99z" fill="#ffe8dc"/><path d="m121.161 274h-64c-2.211 0-4-1.791-4-4v-62.346c0-.855.273-1.688.781-2.375l13.438-18.209c-5.715-1.467-10.695-5.594-13.359-11.33-2.945-6.346-2.418-13.459 1.449-19.516 4.086-6.402 11.019-10.224 18.551-10.224h7.141v-14.746c0-13.926 11.328-25.254 25.254-25.254h50.746c2.211 0 4 1.791 4 4v40.805l15.379 34.58c1.238 2.787.984 5.977-.676 8.533-1.664 2.557-4.473 4.082-7.523 4.082h-7.18v25.641c0 12.328-10.031 22.359-22.359 22.359h-13.641v24c-.001 2.209-1.79 4-4.001 4zm-60-8h56v-24c0-2.209 1.789-4 4-4h17.641c7.918 0 14.359-6.441 14.359-14.359v-29.641c0-2.209 1.789-4 4-4h11.18c.438 0 .684-.24.812-.441.133-.203.254-.525.074-.924l-15.723-35.355c-.227-.512-.344-1.064-.344-1.625v-37.655h-46.746c-9.516 0-17.254 7.74-17.254 17.254v18.746c0 2.209-1.789 4-4 4h-11.139c-4.785 0-9.199 2.441-11.809 6.529-2.367 3.707-2.707 8.023-.934 11.844 2.051 4.424 6.258 7.281 10.711 7.281h2.883c1.508 0 2.891.85 3.57 2.197s.543 2.963-.352 4.178l-16.93 22.941v57.03z" fill="#4c241d"/></g><g fill="#4c241d"><path d="m249.448 226.16c0 2.362-1.914 4.277-4.276 4.277s-4.276-1.915-4.276-4.277 1.915-4.276 4.276-4.276 4.276 1.914 4.276 4.276z"/><path d="m131.989 162.682c-3.496 0-6.996-1.275-10.398-3.828-1.77-1.324-2.129-3.832-.801-5.6 1.324-1.764 3.836-2.125 5.598-.799 3.938 2.949 7.285 2.945 11.199 0 1.777-1.322 4.277-.971 5.602.799 1.324 1.766.969 4.273-.797 5.6-3.403 2.552-6.903 3.828-10.403 3.828z"/><path d="m127.431 246h-11.258c-13.328 0-25.859-5.191-35.281-14.615l-6.559-6.557c-1.562-1.561-1.562-4.094 0-5.656s4.094-1.562 5.656 0l6.559 6.557c7.914 7.914 18.434 12.271 29.625 12.271h11.258c2.211 0 4 1.791 4 4s-1.789 4-4 4z"/><path d="m149.802 217.994c-5.371 0-10.707-1.035-15.281-3.025l-2.957-1.291c-2.027-.883-2.953-3.24-2.07-5.264s3.242-2.957 5.266-2.068l2.957 1.289c5.066 2.205 11.391 2.914 17.344 1.941l1.461-.238c2.215-.357 4.234 1.131 4.59 3.309.352 2.182-1.129 4.234-3.309 4.59l-1.457.236c-2.154.349-4.353.521-6.544.521z"/></g><g><path d="m257.161 122h-56v24h32l8 60h28v-60z" fill="#b5a19c"/><path d="m269.161 210h-28c-2.004 0-3.699-1.484-3.965-3.471l-7.539-56.529h-28.496c-2.211 0-4-1.791-4-4v-24c0-2.209 1.789-4 4-4h56c1.516 0 2.898.855 3.578 2.211l12 24c.277.555.422 1.168.422 1.789v60c0 2.209-1.789 4-4 4zm-24.496-8h20.496v-55.057l-10.472-20.943h-49.527v16h28c2.004 0 3.699 1.484 3.965 3.471z" fill="#4c241d"/></g><path d="m235.298 178h-5.504c-6.965 0-12.633-5.668-12.633-12.633v-19.367c0-2.209 1.789-4 4-4s4 1.791 4 4v19.367c0 2.555 2.078 4.633 4.633 4.633h5.504c2.211 0 4 1.791 4 4s-1.789 4-4 4z" fill="#4c241d"/><path d="m269.161 150h-20c-2.211 0-4-1.791-4-4s1.789-4 4-4h20c2.211 0 4 1.791 4 4s-1.789 4-4 4z" fill="#4c241d"/><path d="m189.161 138h-20c-2.211 0-4-1.791-4-4s1.789-4 4-4h20c2.211 0 4 1.791 4 4s-1.789 4-4 4z" fill="#f53e28"/></g></svg>